<?xml version="1.0" encoding="UTF-8" standalone="no"?>
<!-- Created with Inkscape (http://www.inkscape.org/) -->

<svg
   xmlns:dc="http://purl.org/dc/elements/1.1/"
   xmlns:cc="http://creativecommons.org/ns#"
   xmlns:rdf="http://www.w3.org/1999/02/22-rdf-syntax-ns#"
   xmlns:svg="http://www.w3.org/2000/svg"
   xmlns="http://www.w3.org/2000/svg"
   xmlns:xlink="http://www.w3.org/1999/xlink"
   xmlns:sodipodi="http://sodipodi.sourceforge.net/DTD/sodipodi-0.dtd"
   xmlns:inkscape="http://www.inkscape.org/namespaces/inkscape"
   id="svg2"
   version="1.1"
   inkscape:version="0.91 r13725"
   xml:space="preserve"
   width="744.09448"
   height="1052.3622"
   viewBox="0 0 744.09448 1052.3622"
   sodipodi:docname="logo-A_fade.svg"
   inkscape:export-filename="C:\Projects\WTactics\work\logo2.png"
   inkscape:export-xdpi="72"
   inkscape:export-ydpi="72"><metadata
     id="metadata8"><rdf:RDF><cc:Work
         rdf:about=""><dc:format>image/svg+xml</dc:format><dc:type
           rdf:resource="http://purl.org/dc/dcmitype/StillImage" /><dc:title></dc:title></cc:Work></rdf:RDF></metadata><defs
     id="defs6"><linearGradient
       inkscape:collect="always"
       xlink:href="#linearGradient4615"
       id="linearGradient4647"
       x1="-231.19498"
       y1="190.16199"
       x2="-206.826"
       y2="190.16199"
       gradientUnits="userSpaceOnUse" /><linearGradient
       inkscape:collect="always"
       id="linearGradient4615"><stop
         style="stop-color:#e6daa6;stop-opacity:1;"
         offset="0"
         id="stop4617" /><stop
         style="stop-color:#e6daa6;stop-opacity:0;"
         offset="1"
         id="stop4619" /></linearGradient><linearGradient
       inkscape:collect="always"
       xlink:href="#linearGradient4615"
       id="linearGradient4645"
       x1="-213.15067"
       y1="190.28967"
       x2="-206.81854"
       y2="190.28967"
       gradientUnits="userSpaceOnUse" /><linearGradient
       inkscape:collect="always"
       xlink:href="#linearGradient4615"
       id="linearGradient4632"
       x1="-139.40657"
       y1="193.82864"
       x2="-128.6906"
       y2="193.82864"
       gradientUnits="userSpaceOnUse" /></defs><sodipodi:namedview
     pagecolor="#ffffff"
     bordercolor="#666666"
     borderopacity="1"
     objecttolerance="10"
     gridtolerance="10"
     guidetolerance="10"
     inkscape:pageopacity="0"
     inkscape:pageshadow="2"
     inkscape:window-width="2560"
     inkscape:window-height="1377"
     id="namedview4"
     showgrid="false"
     inkscape:zoom="1.2685914"
     inkscape:cx="-130.99916"
     inkscape:cy="619.26037"
     inkscape:window-x="2552"
     inkscape:window-y="-8"
     inkscape:window-maximized="1"
     inkscape:current-layer="g4535" /><g
     inkscape:groupmode="layer"
     id="layer2"
     inkscape:label="arcmage logo example"><g
       style="display:inline;opacity:1;enable-background:new"
       id="g4535"
       transform="matrix(5.4831084,0,0,5.4831084,1374.5328,-566.70348)"
       inkscape:export-filename="C:\Users\Nico\Dropbox (Personal)\Projects\WTactics\arcmage\arena gent\logo_fade.png"
       inkscape:export-xdpi="159.84"
       inkscape:export-ydpi="159.84"><rect
         style="opacity:1;fill:#566a72;fill-opacity:1;stroke:#ffffff;stroke-width:0.72951323;stroke-linejoin:round;stroke-miterlimit:4;stroke-dasharray:none;stroke-dashoffset:0;stroke-opacity:1"
         id="rect4199"
         width="66.13163"
         height="60.668587"
         x="-250.10991"
         y="161.58154" /><g
         id="g4194"><path
           inkscape:connector-curvature="0"
           id="path14-2"
           style="fill:url(#linearGradient4647);fill-opacity:1;fill-rule:nonzero;stroke:none"
           d="m -209.5254,179.05626 c -0.79786,-0.29625 0.62613,0.22111 -0.56602,-0.15922 -0.11735,-0.0376 -0.22361,-0.10769 -0.3424,-0.14096 -0.47907,-0.13703 -1.00895,-0.16924 -1.49948,-0.25296 -2.15638,-0.0923 -4.2598,0.49053 -6.33246,1.0061 -0.45725,0.14383 -0.92094,0.26547 -1.3696,0.43185 -0.89876,0.32987 -2.07695,0.87085 -2.91131,1.33346 -0.46262,0.25689 -1.74421,1.18642 -1.35422,0.83007 0.50877,-0.46405 1.0315,-1.05118 1.71058,-1.15458 0.53954,-0.0837 -0.82184,0.71987 -1.23258,1.08052 -0.93919,0.96996 -1.42291,1.39465 -2.20539,2.51845 -0.29375,0.42076 -0.53525,0.87479 -0.78821,1.32202 -0.51163,0.90306 -0.95063,1.68697 -1.26906,2.67374 -0.1399,0.42899 -0.21539,0.87765 -0.32308,1.31665 -0.30591,1.6841 -0.2501,3.40148 0.19714,5.0591 0.24866,0.9238 0.49338,1.36424 0.88874,2.22794 1.00072,1.82113 0.0769,0.28515 1.26084,1.88267 0.19284,0.26118 0.34812,0.5492 0.53954,0.81181 0.29911,0.40967 0.66512,0.76746 0.95851,1.18106 0.10483,0.14669 0.18748,0.30877 0.27979,0.46404 l 0.18569,0.37031 c 0.11055,0.15636 -2.65406,2.09091 -2.76283,1.93563 l -0.18175,-0.37317 c -0.44724,-0.52416 -0.92095,-1.0315 -1.36424,-1.55816 -0.69447,-0.83043 -1.2773,-1.74314 -1.86586,-2.64869 -0.17174,-0.35779 -0.36888,-0.70449 -0.51414,-1.07479 -0.14812,-0.37711 -0.25295,-0.77139 -0.36351,-1.16138 -0.48337,-1.72167 -0.56995,-3.23546 -0.2712,-5.00757 0.0923,-0.42756 0.1356,-0.86799 0.2755,-1.28303 0.15778,-0.46548 0.40107,-0.89732 0.60931,-1.34169 0.2068,-0.44151 0.4025,-0.89018 0.63864,-1.3163 0.79107,-1.43007 1.79609,-2.71703 2.98537,-3.83511 2.42472,-2.11738 1.39751,-1.29411 5.6448,-4.21258 0.46261,-0.31842 0.94205,-0.6136 1.434,-0.88587 1.32918,-0.73812 2.76462,-1.25369 4.20685,-1.71487 1.98035,-0.50591 4.02367,-0.98392 6.08237,-0.83042 0.48373,0.0855 0.99643,0.11771 1.46191,0.27978 0.11449,0.039 0.21646,0.1102 0.33131,0.14813 0.5603,0.18569 0.18283,-0.0394 0.52273,0.18998 0.10733,0.15242 -2.59002,2.04046 -2.69628,1.88804 z" /><path
           inkscape:connector-curvature="0"
           id="path42-5"
           style="fill:#800000;fill-opacity:1;fill-rule:nonzero;stroke:none"
           d="m -243.19368,196.41605 c 0.98785,-1.08195 2.1943,-1.97212 3.39181,-2.80934 1.39072,-0.96996 2.79252,-1.9231 4.18717,-2.8859 2.38858,-1.44367 4.96429,-2.66658 7.72175,-3.19897 0.51592,-0.0995 1.04008,-0.14956 1.55994,-0.22362 1.43401,-0.16494 2.819,0.0612 4.20793,0.3857 0.47693,0.11163 0.9603,0.20537 1.42721,0.35635 0.45116,0.14526 0.87908,0.35349 1.32059,0.52666 0.44186,0.17496 0.88337,0.3467 1.32488,0.52022 4.60506,1.98572 -2.01112,-0.85689 2.47946,1.03687 0.37746,0.15778 0.74491,0.34097 1.12523,0.49482 0.9671,0.38855 1.9689,0.71557 2.96283,1.02863 1.3807,0.46656 2.8215,0.54777 4.26124,0.41933 1.07049,-0.0966 2.08947,-0.43328 3.12776,-0.68624 0.34956,-0.12164 0.69876,-0.2322 1.04402,-0.36208 0.10627,0.14956 -2.54207,2.00432 -2.6469,1.85477 -0.38176,0.17317 -0.76888,0.33381 -1.17282,0.44974 -1.05655,0.30912 -2.12275,0.56065 -3.20863,0.74383 -1.44403,0.0766 -2.90594,0.0572 -4.2963,-0.39428 -0.35385,-0.10483 -1.62399,-0.478 -1.93168,-0.57997 -1.61827,-0.5424 -3.1725,-1.24796 -4.74461,-1.90485 -0.45152,-0.16637 -0.90305,-0.32845 -1.35315,-0.49911 -0.44723,-0.16924 -0.88051,-0.37461 -1.33597,-0.51701 -0.46834,-0.14812 -0.95314,-0.23757 -1.42971,-0.35349 -0.4458,-0.11055 -0.88481,-0.25868 -1.33741,-0.32737 -0.97711,-0.14956 -1.87444,-0.0905 -2.85406,-0.0712 -0.51557,0.0726 -1.03829,0.11485 -1.5485,0.21682 -2.72812,0.55063 -5.29559,1.77354 -7.68131,3.16962 0.59679,-0.43184 1.18928,-0.86799 1.7875,-1.29697 0.38569,-0.27514 -0.76852,0.55493 -1.14742,0.84008 -0.90556,0.68337 -1.79859,1.39465 -2.58966,2.21076 0.10483,0.14956 -2.54636,2.00718 -2.65119,1.8562 z" /><path
           inkscape:connector-curvature="0"
           id="path16-0"
           style="fill:url(#linearGradient4645);fill-opacity:1;fill-rule:nonzero;stroke:none"
           d="m -206.82089,176.91384 c -0.001,0.0769 0.009,0.15384 -0.006,0.22934 -0.0236,0.13274 -0.0809,0.25832 -0.1034,0.39106 -0.0333,0.19571 -0.0318,0.39571 -0.0655,0.59142 -0.13417,0.80215 -0.32308,1.45189 -0.48766,2.25978 -0.10233,0.50197 -0.18605,1.00645 -0.27979,1.51093 -0.13131,0.55886 -0.278,1.11522 -0.39393,1.67694 -0.11198,0.55063 -0.18748,1.10842 -0.29088,1.66192 -0.28766,1.53454 -0.61217,3.06623 -0.82434,4.61472 -0.0576,0.41647 -0.0869,0.83722 -0.13023,1.25512 -0.38283,2.70021 0.0154,-0.24866 -0.26118,2.22364 -0.0365,0.33417 -0.098,0.66512 -0.13417,1.00073 -0.0308,0.28802 -0.0322,0.57997 -0.0644,0.86942 -0.31306,2.71524 0.0182,-0.83436 -0.18569,1.45476 -0.1288,0.49052 -0.13023,0.99929 -0.19427,1.49697 -0.0182,0.13417 -0.0615,0.26262 -0.0769,0.39679 -0.0125,0.1034 -0.007,0.20966 -0.0114,0.31449 l -0.0572,0.3535 c 0.0687,0.51449 0.15671,1.03972 0.10626,1.55851 -0.0361,0.30162 0.0587,0.82041 -0.20823,1.03007 0.10483,0.1492 -2.5546,2.01255 -2.66086,1.86156 0.0236,-0.0183 0.0587,-0.0279 0.0712,-0.0562 0.0809,-0.16494 0.0504,-0.73346 0.0909,-0.94062 0.005,-0.52523 -0.063,-1.03543 -0.10626,-1.55816 l 0.0336,-0.33668 c -0.0168,-0.0894 -0.0547,-0.17889 -0.0519,-0.2712 0.006,-0.13417 0.0601,-0.26297 0.0769,-0.39571 0.0168,-0.1356 0.008,-0.27084 0.0236,-0.40501 0.1288,-1.1281 0.0533,0.1313 0.1034,-1.04546 0.049,-0.37746 0.14419,-1.08051 0.17209,-1.44509 0.12308,-1.65477 -0.0673,-0.0197 0.1034,-1.80289 0.0351,-0.35671 0.0923,-0.7102 0.12594,-1.06656 0.0333,-0.37031 0.0501,-0.74348 0.0751,-1.11522 0.26583,-1.92739 0.46691,-3.87125 0.83042,-5.78326 0.1102,-0.57603 0.24866,-1.14455 0.37317,-1.71773 0.11879,-0.55063 0.23757,-1.10126 0.35493,-1.65047 0.44723,-1.76674 0.93918,-3.52061 1.37819,-5.28879 -0.10483,-0.15063 2.56855,-2.02364 2.67481,-1.87265 z" /></g></g></g></svg>