<?xml version="1.0" encoding="UTF-8" standalone="no"?>
<!-- Created with Inkscape (http://www.inkscape.org/) -->

<svg
   xmlns:dc="http://purl.org/dc/elements/1.1/"
   xmlns:cc="http://creativecommons.org/ns#"
   xmlns:rdf="http://www.w3.org/1999/02/22-rdf-syntax-ns#"
   xmlns:svg="http://www.w3.org/2000/svg"
   xmlns="http://www.w3.org/2000/svg"
   xmlns:sodipodi="http://sodipodi.sourceforge.net/DTD/sodipodi-0.dtd"
   xmlns:inkscape="http://www.inkscape.org/namespaces/inkscape"
   id="svg2"
   version="1.1"
   inkscape:version="0.91 r13725"
   xml:space="preserve"
   width="744.09448"
   height="1052.3622"
   viewBox="0 0 744.09448 1052.3622"
   sodipodi:docname="logo-A.svg"
   inkscape:export-filename="C:\Projects\WTactics\work\logo2.png"
   inkscape:export-xdpi="72"
   inkscape:export-ydpi="72"><metadata
     id="metadata8"><rdf:RDF><cc:Work
         rdf:about=""><dc:format>image/svg+xml</dc:format><dc:type
           rdf:resource="http://purl.org/dc/dcmitype/StillImage" /><dc:title></dc:title></cc:Work></rdf:RDF></metadata><defs
     id="defs6" /><sodipodi:namedview
     pagecolor="#ffffff"
     bordercolor="#666666"
     borderopacity="1"
     objecttolerance="10"
     gridtolerance="10"
     guidetolerance="10"
     inkscape:pageopacity="0"
     inkscape:pageshadow="2"
     inkscape:window-width="2560"
     inkscape:window-height="1377"
     id="namedview4"
     showgrid="false"
     inkscape:zoom="0.89702955"
     inkscape:cx="327.4723"
     inkscape:cy="808.70581"
     inkscape:window-x="2552"
     inkscape:window-y="-8"
     inkscape:window-maximized="1"
     inkscape:current-layer="g4172" /><g
     id="g10"
     inkscape:groupmode="layer"
     inkscape:label="arcmage logo example"
     transform="matrix(1.25,0,0,-1.25,0,1052.3622)"><g
       id="g12"><g
         id="g4186"
         transform="matrix(1.5694245,0,0,1.5694245,-60.768426,-302.08276)"><g
           id="g4172"
           transform="translate(-68.470265,-133.52687)"><path
             d="m 222.23,650.855 c -2.23,0.828 1.75,-0.618 -1.582,0.445 -0.328,0.105 -0.625,0.301 -0.957,0.394 -1.339,0.383 -2.82,0.473 -4.191,0.707 -6.027,0.258 -11.906,-1.371 -17.699,-2.812 -1.278,-0.402 -2.574,-0.742 -3.828,-1.207 -2.512,-0.922 -5.805,-2.434 -8.137,-3.727 -1.293,-0.718 -4.875,-3.316 -3.785,-2.32 1.422,1.297 2.883,2.938 4.781,3.227 1.508,0.234 -2.297,-2.012 -3.445,-3.02 -2.625,-2.711 -3.977,-3.898 -6.164,-7.039 -0.821,-1.176 -1.496,-2.445 -2.203,-3.695 -1.43,-2.524 -2.657,-4.715 -3.547,-7.473 -0.391,-1.199 -0.602,-2.453 -0.903,-3.68 -0.855,-4.707 -0.699,-9.507 0.551,-14.14 0.695,-2.582 1.379,-3.813 2.484,-6.227 2.797,-5.09 0.215,-0.797 3.524,-5.262 0.539,-0.73 0.973,-1.535 1.508,-2.269 0.836,-1.145 1.859,-2.145 2.679,-3.301 0.293,-0.41 0.524,-0.863 0.782,-1.297 l 0.519,-1.035 c 0.309,-0.437 -7.418,-5.844 -7.722,-5.41 l -0.508,1.043 c -1.25,1.465 -2.574,2.883 -3.813,4.355 -1.941,2.321 -3.57,4.872 -5.215,7.403 -0.48,1 -1.031,1.969 -1.437,3.004 -0.414,1.054 -0.707,2.156 -1.016,3.246 -1.351,4.812 -1.593,9.043 -0.758,13.996 0.258,1.195 0.379,2.426 0.77,3.586 0.441,1.301 1.121,2.508 1.703,3.75 0.578,1.234 1.125,2.488 1.785,3.679 2.211,3.997 5.02,7.594 8.344,10.719 6.777,5.918 3.906,3.617 15.777,11.774 1.293,0.89 2.633,1.715 4.008,2.476 3.715,2.063 7.727,3.504 11.758,4.793 5.535,1.414 11.246,2.75 17,2.321 1.352,-0.239 2.785,-0.329 4.086,-0.782 0.32,-0.109 0.605,-0.308 0.926,-0.414 1.566,-0.519 0.511,0.11 1.461,-0.531 0.3,-0.426 -7.239,-5.703 -7.536,-5.277 z"
             style="fill:#38170a;fill-opacity:1;fill-rule:nonzero;stroke:none"
             id="path14"
             inkscape:connector-curvature="0"
             inkscape:export-xdpi="599.81183"
             inkscape:export-ydpi="599.81183" /><path
             d="m 229.789,656.843 c -0.004,-0.215 0.024,-0.43 -0.016,-0.641 -0.066,-0.371 -0.226,-0.722 -0.289,-1.093 -0.093,-0.547 -0.089,-1.106 -0.183,-1.653 -0.375,-2.242 -0.903,-4.058 -1.363,-6.316 -0.286,-1.403 -0.52,-2.813 -0.782,-4.223 -0.367,-1.562 -0.777,-3.117 -1.101,-4.687 -0.313,-1.539 -0.524,-3.098 -0.813,-4.645 -0.804,-4.289 -1.711,-8.57 -2.304,-12.898 -0.161,-1.164 -0.243,-2.34 -0.364,-3.508 -1.07,-7.547 0.043,0.695 -0.73,-6.215 -0.102,-0.934 -0.274,-1.859 -0.375,-2.797 -0.086,-0.805 -0.09,-1.621 -0.18,-2.43 -0.875,-7.589 0.051,2.332 -0.519,-4.066 -0.36,-1.371 -0.364,-2.793 -0.543,-4.184 -0.051,-0.375 -0.172,-0.734 -0.215,-1.109 -0.035,-0.289 -0.02,-0.586 -0.032,-0.879 l -0.16,-0.988 c 0.192,-1.438 0.438,-2.906 0.297,-4.356 -0.101,-0.843 0.164,-2.293 -0.582,-2.879 0.293,-0.417 -7.14,-5.625 -7.437,-5.203 0.066,0.051 0.164,0.078 0.199,0.157 0.226,0.461 0.141,2.05 0.254,2.629 0.015,1.468 -0.176,2.894 -0.297,4.355 l 0.094,0.941 c -0.047,0.25 -0.153,0.5 -0.145,0.758 0.016,0.375 0.168,0.735 0.215,1.106 0.047,0.379 0.023,0.757 0.066,1.132 0.36,3.153 0.149,-0.367 0.289,2.922 0.137,1.055 0.403,3.02 0.481,4.039 0.344,4.625 -0.188,0.055 0.289,5.039 0.098,0.997 0.258,1.985 0.352,2.981 0.093,1.035 0.14,2.078 0.21,3.117 0.743,5.387 1.305,10.82 2.321,16.164 0.308,1.61 0.695,3.199 1.043,4.801 0.332,1.539 0.664,3.078 0.992,4.613 1.25,4.938 2.625,9.84 3.852,14.782 -0.293,0.421 7.179,5.656 7.476,5.234 z"
             style="fill:#38170a;fill-opacity:1;fill-rule:nonzero;stroke:none"
             id="path16"
             inkscape:connector-curvature="0"
             inkscape:export-xdpi="599.81183"
             inkscape:export-ydpi="599.81183" /><path
             d="m 127.74441,602.335 c 2.761,3.024 6.133,5.512 9.48,7.852 3.887,2.711 7.805,5.375 11.703,8.066 6.676,4.035 13.875,7.453 21.582,8.941 1.442,0.278 2.907,0.418 4.36,0.625 4.008,0.461 7.879,-0.171 11.761,-1.078 1.333,-0.312 2.684,-0.574 3.989,-0.996 1.261,-0.406 2.457,-0.988 3.691,-1.472 1.235,-0.489 2.469,-0.969 3.703,-1.454 12.871,-5.55 -5.621,2.395 6.93,-2.898 1.055,-0.441 2.082,-0.953 3.145,-1.383 2.703,-1.086 5.503,-2 8.281,-2.875 3.859,-1.304 7.886,-1.531 11.91,-1.172 2.992,0.27 5.84,1.211 8.742,1.918 0.977,0.34 1.953,0.649 2.918,1.012 0.297,-0.418 -7.105,-5.602 -7.398,-5.184 -1.067,-0.484 -2.149,-0.933 -3.278,-1.257 -2.953,-0.864 -5.933,-1.567 -8.968,-2.079 -4.036,-0.214 -8.122,-0.16 -12.008,1.102 -0.989,0.293 -4.539,1.336 -5.399,1.621 -4.523,1.516 -8.867,3.488 -13.261,5.324 -1.262,0.465 -2.524,0.918 -3.782,1.395 -1.25,0.473 -2.461,1.047 -3.734,1.445 -1.309,0.414 -2.664,0.664 -3.996,0.988 -1.246,0.309 -2.473,0.723 -3.738,0.915 -2.731,0.418 -5.239,0.253 -7.977,0.199 -1.441,-0.203 -2.902,-0.321 -4.328,-0.606 -7.625,-1.539 -14.801,-4.957 -21.469,-8.859 1.668,1.207 3.324,2.426 4.996,3.625 1.078,0.769 -2.148,-1.551 -3.207,-2.348 -2.531,-1.91 -5.027,-3.898 -7.238,-6.179 0.293,-0.418 -7.117,-5.61 -7.41,-5.188 z"
             style="fill:#800000;fill-opacity:1;fill-rule:nonzero;stroke:none"
             id="path42"
             inkscape:connector-curvature="0"
             inkscape:export-xdpi="599.81183"
             inkscape:export-ydpi="599.81183" /></g></g></g></g></svg>